<?xml version="1.0" encoding="utf-8"?>
<svg version="1.1" xmlns="http://www.w3.org/2000/svg" xmlns:xlink="http://www.w3.org/1999/xlink" x="0px" y="0px"
	 viewBox="0 0 442.4 270.9" style="enable-background:new 0 0 442.4 270.9;" xml:space="preserve">
<g>
	<path fill="#699F63" d="M218.8,270.9c-1.5,0-2.9-0.4-4.2-1.1l-13.3-7.9c-2-1.1-1-1.5-0.4-1.7c2.7-0.9,3.2-1.1,6-2.7
		c0.3-0.2,0.7-0.1,1,0.1l10.2,6.1c0.4,0.2,0.9,0.2,1.2,0l39.9-23.1c0.4-0.2,0.6-0.6,0.6-1.1v-46.1c0-0.5-0.2-0.9-0.6-1.1l-39.9-23
		c-0.4-0.2-0.9-0.2-1.2,0l-39.9,23c-0.4,0.2-0.6,0.7-0.6,1.1v46.1c0,0.4,0.2,0.9,0.6,1.1l10.9,6.3c5.9,3,9.6-0.5,9.6-4v-45.5
		c0-0.6,0.5-1.2,1.2-1.2h5.1c0.6,0,1.2,0.5,1.2,1.2v45.5c0,7.9-4.3,12.5-11.8,12.5c-2.3,0-4.1,0-9.2-2.5l-10.5-6
		c-2.6-1.5-4.2-4.3-4.2-7.3v-46.1c0-3,1.6-5.8,4.2-7.3l39.9-23.1c2.5-1.4,5.9-1.4,8.4,0l39.9,23.1c2.6,1.5,4.2,4.3,4.2,7.3v46.1
		c0,3-1.6,5.8-4.2,7.3L223,270C221.7,270.6,220.2,270.9,218.8,270.9z"/>
	<path fill="#699F63" d="M231.1,239.2c-17.5,0-21.1-8-21.1-14.8c0-0.6,0.5-1.2,1.2-1.2h5.2c0.6,0,1.1,0.4,1.1,1
		c0.8,5.3,3.1,7.9,13.7,7.9c8.4,0,12-1.9,12-6.4c0-2.6-1-4.5-14.1-5.8c-10.9-1.1-17.7-3.5-17.7-12.2c0-8.1,6.8-12.9,18.2-12.9
		c12.8,0,19.1,4.4,19.9,14c0,0.3-0.1,0.6-0.3,0.9c-0.2,0.2-0.5,0.4-0.8,0.4h-5.2c-0.5,0-1-0.4-1.1-0.9c-1.2-5.5-4.3-7.3-12.5-7.3
		c-9.2,0-10.3,3.2-10.3,5.6c0,2.9,1.3,3.8,13.7,5.4c12.3,1.6,18.1,3.9,18.1,12.5C251,234.2,243.8,239.2,231.1,239.2z"/>
</g>
<g>
	<path fill="#699F63" d="M288.7,190.8c0,4.2-3.5,7.7-7.7,7.7s-7.7-3.4-7.7-7.7c0-4.4,3.6-7.7,7.7-7.7
		C285.2,183.1,288.7,186.5,288.7,190.8z M274.5,190.8c0,3.6,2.9,6.5,6.4,6.5c3.6,0,6.5-3,6.5-6.5c0-3.6-2.9-6.4-6.5-6.4
		C277.5,184.4,274.5,187.2,274.5,190.8z M278.1,186.5h3c1,0,3,0,3,2.3c0,1.6-1,1.9-1.6,2.1c1.2,0.1,1.3,0.9,1.4,2
		c0.1,0.7,0.2,1.9,0.4,2.3h-1.8c0-0.4-0.3-2.6-0.3-2.7c-0.1-0.5-0.3-0.7-0.9-0.7h-1.5v3.5h-1.7V186.5z M279.7,190.3h1.3
		c1.1,0,1.3-0.8,1.3-1.2c0-1.2-0.8-1.2-1.3-1.2h-1.4v2.4H279.7z"/>
</g>
<path fill="#333333" d="M95,90.6c0-1.8-1-3.5-2.6-4.4L50,61.8c-0.7-0.4-1.5-0.6-2.3-0.7c-0.1,0-0.4,0-0.4,0c-0.8,0-1.6,0.3-2.3,0.7
	L2.6,86.2C1,87.1,0,88.8,0,90.6l0.1,65.6c0,0.9,0.5,1.8,1.3,2.2c0.8,0.5,1.8,0.5,2.5,0L29.1,144c1.6-0.9,2.6-2.6,2.6-4.4v-30.7
	c0-1.8,1-3.5,2.6-4.4L45,98.3c0.8-0.5,1.7-0.7,2.6-0.7s1.8,0.2,2.5,0.7l10.7,6.2c1.6,0.9,2.6,2.6,2.6,4.4v30.7c0,1.8,1,3.5,2.6,4.4
	l25.2,14.4c0.8,0.5,1.8,0.5,2.6,0c0.8-0.4,1.3-1.3,1.3-2.2L95,90.6z"/>
<path fill="#333333" d="M298.8,0.3c-0.8-0.4-1.8-0.4-2.5,0c-0.8,0.5-1.3,1.3-1.3,2.2v65c0,0.6-0.3,1.2-0.9,1.6c-0.6,0.3-1.2,0.3-1.8,0
	L281.7,63c-1.6-0.9-3.5-0.9-5.1,0l-42.4,24.5c-1.6,0.9-2.6,2.6-2.6,4.4v48.9c0,1.8,1,3.5,2.6,4.4l42.4,24.5c1.6,0.9,3.5,0.9,5.1,0
	l42.4-24.5c1.6-0.9,2.6-2.6,2.6-4.4V18.9c0-1.9-1-3.6-2.6-4.5L298.8,0.3z M294.9,124.7c0,0.5-0.2,0.9-0.6,1.1l-14.5,8.4
	c-0.4,0.2-0.9,0.2-1.3,0l-14.5-8.4c-0.4-0.2-0.6-0.7-0.6-1.1v-16.8c0-0.5,0.2-0.9,0.6-1.1l14.5-8.4c0.4-0.2,0.9-0.2,1.3,0l14.5,8.4
	c0.4,0.2,0.6,0.7,0.6,1.1V124.7z"/>
<g>
	<path fill="#333333" d="M439.9,107.5c1.6-0.9,2.5-2.6,2.5-4.4V91.2c0-1.8-1-3.5-2.5-4.4l-42.1-24.4c-1.6-0.9-3.5-0.9-5.1,0l-42.4,24.5
		c-1.6,0.9-2.6,2.6-2.6,4.4v48.9c0,1.8,1,3.5,2.6,4.4l42.1,24c1.6,0.9,3.5,0.9,5,0l25.5-14.2c0.8-0.4,1.3-1.3,1.3-2.2
		c0-0.9-0.5-1.8-1.3-2.2l-42.6-24.5c-0.8-0.5-1.3-1.3-1.3-2.2V108c0-0.9,0.5-1.8,1.3-2.2l13.3-7.6c0.8-0.5,1.8-0.5,2.6,0l13.3,7.6
		c0.8,0.5,1.3,1.3,1.3,2.2v12c0,0.9,0.5,1.8,1.3,2.2c0.8,0.5,1.8,0.5,2.6,0L439.9,107.5z"/>
	<path fill="#699F63" d="M394.6,105.2c0.3-0.2,0.7-0.2,1,0l8.1,4.7c0.3,0.2,0.5,0.5,0.5,0.9v9.4c0,0.4-0.2,0.7-0.5,0.9l-8.1,4.7
		c-0.3,0.2-0.7,0.2-1,0l-8.1-4.7c-0.3-0.2-0.5-0.5-0.5-0.9v-9.4c0-0.4,0.2-0.7,0.5-0.9L394.6,105.2z"/>
</g>
<g>
	<g>
			<linearGradient id="XMLID_2_" gradientUnits="userSpaceOnUse" x1="180.4804" y1="191.2959" x2="142.4155" y2="113.6435" gradientTransform="matrix(1 0 0 -1 0 272)">
			<stop  offset="0" style="stop-color:#41873F"/>
			<stop  offset="0.3288" style="stop-color:#418B3D"/>
			<stop  offset="0.6352" style="stop-color:#419637"/>
			<stop  offset="0.9319" style="stop-color:#3FA92D"/>
			<stop  offset="1" style="stop-color:#3FAE2A"/>
		</linearGradient>
		<path id="XMLID_143_" fill="url(#XMLID_2_)" d="M165.9,62.6c-1.6-0.9-3.5-0.9-5.1,0l-42.1,24.3c-1.6,0.9-2.5,2.6-2.5,4.4V140
			c0,1.8,1,3.5,2.5,4.4l42.1,24.3c1.6,0.9,3.5,0.9,5.1,0l42.1-24.3c1.6-0.9,2.5-2.6,2.5-4.4V91.3c0-1.8-1-3.5-2.5-4.4L165.9,62.6z"
			/>
	</g>
	<g>
		<defs>
			<path id="SVGID_1_" d="M165.9,62.6c-1.6-0.9-3.5-0.9-5.1,0l-42.1,24.3c-1.6,0.9-2.5,2.6-2.5,4.4V140c0,1.8,1,3.5,2.5,4.4
				l42.1,24.3c1.6,0.9,3.5,0.9,5.1,0l42.1-24.3c1.6-0.9,2.5-2.6,2.5-4.4V91.3c0-1.8-1-3.5-2.5-4.4L165.9,62.6z"/>
		</defs>
		<clipPath id="SVGID_2_">
			<use xlink:href="#SVGID_1_"  style="overflow:visible;"/>
		</clipPath>
		<g fill="clip-path:url(#SVGID_2_)">
			<path fill="none" d="M160.7,62.6l-42.2,24.3c-1.6,0.9-2.7,2.6-2.7,4.4V140c0,1.2,0.5,2.3,1.3,3.2L164.5,62
				C163.3,61.8,161.9,61.9,160.7,62.6z"/>
			<path fill="none" d="M164.8,169.2c0.4-0.1,0.8-0.3,1.2-0.5l42.2-24.3c1.6-0.9,2.6-2.6,2.6-4.4V91.3c0-1.3-0.6-2.6-1.5-3.5
				L164.8,169.2z"/>

				<linearGradient id="SVGID_3_" gradientUnits="userSpaceOnUse" x1="156.9544" y1="150.651" x2="263.7616" y2="229.5659" gradientTransform="matrix(1 0 0 -1 0 272)">
				<stop  offset="0.1376" style="stop-color:#41873F"/>
				<stop  offset="0.4032" style="stop-color:#54A044"/>
				<stop  offset="0.7136" style="stop-color:#66B848"/>
				<stop  offset="0.9081" style="stop-color:#6CC04A"/>
			</linearGradient>
			<path fill="url(#SVGID_3_)" d="M208.1,86.9l-42.3-24.3c-0.4-0.2-0.9-0.4-1.3-0.5l-47.4,81.2c0.4,0.5,0.9,0.9,1.4,1.2l42.3,24.3
				c1.2,0.7,2.6,0.9,3.9,0.5l44.5-81.4C208.9,87.5,208.5,87.2,208.1,86.9z"/>
		</g>
	</g>
	<g>
		<defs>
			<path id="SVGID_4_" d="M165.9,62.6c-1.6-0.9-3.5-0.9-5.1,0l-42.1,24.3c-1.6,0.9-2.5,2.6-2.5,4.4V140c0,1.8,1,3.5,2.5,4.4
				l42.1,24.3c1.6,0.9,3.5,0.9,5.1,0l42.1-24.3c1.6-0.9,2.5-2.6,2.5-4.4V91.3c0-1.8-1-3.5-2.5-4.4L165.9,62.6z"/>
		</defs>
		<clipPath id="SVGID_5_">
			<use xlink:href="#SVGID_4_"  style="overflow:visible;"/>
		</clipPath>
		<g fill="clip-path:url(#SVGID_5_)">
			<path fill="none" d="M210.8,140V91.3c0-1.8-1.1-3.5-2.7-4.4l-42.3-24.3c-0.5-0.3-1-0.5-1.6-0.6l46.3,79.1
				C210.7,140.8,210.8,140.4,210.8,140z"/>
			<path fill="none" d="M118.5,86.9c-1.6,0.9-2.7,2.6-2.7,4.4V140c0,1.8,1.2,3.5,2.7,4.4l42.3,24.3c1,0.6,2.1,0.8,3.3,0.6
				l-45.3-82.5L118.5,86.9z"/>

				<linearGradient id="SVGID_6_" gradientUnits="userSpaceOnUse" x1="114.6623" y1="218.15" x2="212.0793" y2="218.15" gradientTransform="matrix(1 0 0 -1 0 272)">
				<stop  offset="9.191646e-02" style="stop-color:#6CC04A"/>
				<stop  offset="0.2864" style="stop-color:#66B848"/>
				<stop  offset="0.5968" style="stop-color:#54A044"/>
				<stop  offset="0.8624" style="stop-color:#41873F"/>
			</linearGradient>
			<polygon fill="url(#SVGID_6_)" points="159.4,53.7 158.8,54 159.6,54 			"/>

				<linearGradient id="SVGID_7_" gradientUnits="userSpaceOnUse" x1="114.6623" y1="156.3455" x2="212.0793" y2="156.3455" gradientTransform="matrix(1 0 0 -1 0 272)">
				<stop  offset="9.191646e-02" style="stop-color:#6CC04A"/>
				<stop  offset="0.2864" style="stop-color:#66B848"/>
				<stop  offset="0.5968" style="stop-color:#54A044"/>
				<stop  offset="0.8624" style="stop-color:#41873F"/>
			</linearGradient>
			<path fill="url(#SVGID_7_)" d="M208.2,144.4c1.2-0.7,2.1-1.9,2.5-3.2L164.3,62c-1.2-0.2-2.5-0.1-3.6,0.6l-42,24.2l45.3,82.6
				c0.6-0.1,1.3-0.3,1.9-0.6L208.2,144.4z"/>

				<linearGradient id="SVGID_8_" gradientUnits="userSpaceOnUse" x1="114.6623" y1="128.55" x2="212.0793" y2="128.55" gradientTransform="matrix(1 0 0 -1 0 272)">
				<stop  offset="9.191646e-02" style="stop-color:#6CC04A"/>
				<stop  offset="0.2864" style="stop-color:#66B848"/>
				<stop  offset="0.5968" style="stop-color:#54A044"/>
				<stop  offset="0.8624" style="stop-color:#41873F"/>
			</linearGradient>
			<polygon fill="url(#SVGID_8_)" points="212.1,143.6 211.8,143.1 211.8,143.8 			"/>

				<linearGradient id="SVGID_9_" gradientUnits="userSpaceOnUse" x1="114.6623" y1="116.05" x2="212.0793" y2="116.05" gradientTransform="matrix(1 0 0 -1 0 272)">
				<stop  offset="9.191646e-02" style="stop-color:#6CC04A"/>
				<stop  offset="0.2864" style="stop-color:#66B848"/>
				<stop  offset="0.5968" style="stop-color:#54A044"/>
				<stop  offset="0.8624" style="stop-color:#41873F"/>
			</linearGradient>
			<path fill="url(#SVGID_9_)" d="M208.2,144.4L166,168.7c-0.6,0.3-1.2,0.5-1.9,0.6l0.8,1.5l46.8-27.1v-0.6l-1.2-2
				C210.3,142.5,209.4,143.7,208.2,144.4z"/>

				<linearGradient id="SVGID_10_" gradientUnits="userSpaceOnUse" x1="226.1964" y1="193.6246" x2="166.1158" y2="71.0602" gradientTransform="matrix(1 0 0 -1 0 272)">
				<stop  offset="0" style="stop-color:#41873F"/>
				<stop  offset="0.3288" style="stop-color:#418B3D"/>
				<stop  offset="0.6352" style="stop-color:#419637"/>
				<stop  offset="0.9319" style="stop-color:#3FA92D"/>
				<stop  offset="1" style="stop-color:#3FAE2A"/>
			</linearGradient>
			<path fill="url(#SVGID_10_)" d="M208.2,144.4L166,168.7c-0.6,0.3-1.2,0.5-1.9,0.6l0.8,1.5l46.8-27.1v-0.6l-1.2-2
				C210.3,142.5,209.4,143.7,208.2,144.4z"/>
		</g>
	</g>
</g>
</svg>
