<?xml version="1.0" encoding="utf-8"?>
<svg version="1.1" id="klaud9_logo" xmlns="http://www.w3.org/2000/svg" xmlns:xlink="http://www.w3.org/1999/xlink" x="0px"
	 y="0px" viewBox="0 0 512 163.8" style="" xml:space="preserve">
<g>
	<g>
		<path fill="#EB6E5F" d="M67.6,163.7H50.2c-2.5,0-3.3-0.9-4.6-2.9L26,133.2c-1.7-2.5-2.9-5.1-4.1-7.5h-0.3v35c0,2.1-0.9,3.1-2.9,3.1H3
			c-2.1,0-3-1-3-3.1V53.2C0,51.1,0.9,50,2.9,50h15.6c2.1,0,2.9,1,2.9,3.1v65.7h0.3L46.2,89c1.5-1.7,2.1-2.2,4.6-2.2h14
			c2.1,0,3.1,1,3.1,2.9c0,1-0.6,1.7-1.2,2.5l-25.8,28.2l28.8,37.9c0.6,0.9,0.9,1.7,0.9,2.5C70.6,162.7,69.7,163.7,67.6,163.7z"/>
		<path fill="#EB6E5F" d="M98.4,163.7H82.6c-2.1,0-2.9-1-2.9-3.1V53.2c0-2.1,0.9-3.1,2.9-3.1h15.8c2.1,0,3.1,1,3.1,3.1v107.4
			C101.6,162.7,100.5,163.7,98.4,163.7z"/>
		<path fill="#EB6E5F" d="M172.1,159c-3.7,2.4-14.3,4.8-24.2,4.8c-17.4,0-34-5.3-34-21.2c0-20.3,24.7-25.1,43.1-28.5v-9.8
			c0-6.3-3.9-10.1-9.2-10.1c-7,0-9.9,5.1-11.4,9.4c-1.7,4.9-4.9,6.8-9.7,6.8c-5.2,0-9.5-3.1-9.5-8.6c0-7.3,9.4-18.8,33.6-18.8
			c15.2,0,27.2,7.5,27.2,23.4v40.6C177.9,153.3,176.6,156.3,172.1,159z M156.9,123.4c-11.4,2.2-22.3,5.6-22.3,17.4
			c0,6.7,4.6,11.8,12.6,11.8c4.9,0,9.7-1.7,9.7-7.3L156.9,123.4L156.9,123.4z"/>
		<path fill="#EB6E5F" d="M253.3,158.8c-4.1,2.5-14.9,5.1-27.3,5.1c-11,0-32.8-1.9-32.8-23.6V88c0-2.1,0.9-3.1,2.9-3.1h15.7
			c2.1,0,3.1,1,3.1,3.1v51.7c0,7.3,4.3,10.9,11,10.9c8.9,0,11.1-3.3,11.1-8.2V88c0-2.1,0.9-3.1,2.9-3.1H256c2.1,0,2.9,1,2.9,3.1
			v59.8C258.9,153.3,257.2,156.6,253.3,158.8z"/>
		<path fill="#EB6E5F" d="M335.5,158.6c-4,2.7-14.7,5.2-24.8,5.2c-28.4,0-39.3-16.8-39.3-38.5c0-22,11.8-42.2,34.5-42.2
			c7,0,11.8,2.4,13.7,3.6V51.3c0-2.1,0.9-3.1,2.9-3.1h15.6c2.1,0,3.1,1,3.1,3.1v96C341.3,153,339.8,155.8,335.5,158.6z M319.6,97.2
			c-1.9-1.4-4.6-2.9-9.2-2.9c-10.1,0-16.9,10.6-16.9,28.4c0,18.6,8.5,28.1,17.2,28.1c6,0,8.9-2.4,8.9-6.7L319.6,97.2L319.6,97.2z"/>
	</g>
	<g>
		<path fill="#EB6E5F" d="M367.5,163.4c-5.4,0-8.6-2.4-8.6-6.3c0-3.3,2-5.8,6.2-6.7c17-3.9,35.3-14.7,41.3-38.6
			c-5,3.5-11.8,6.3-19.7,6.3c-19.2,0-32.5-12.6-32.5-35.3c0-22.8,17-36.6,38-36.6c25.1,0,38.5,17.3,38.5,46.5
			C430.8,143.2,386.9,163.4,367.5,163.4z M391.2,60.2c-9.7,0-15.1,9.3-15.1,21.2c0,12.8,5.2,22.4,17.2,22.4c5.7,0,11.8-2.2,15.5-5.2
			c0.2-2.4,0.2-4.6,0.2-7C408.9,74.4,404.3,60.2,391.2,60.2z"/>
	</g>
	<path fill="#EB6E5F" d="M457.3,86l1.1,8l7.1,1.6c15.1,3.3,26.1,18.1,26.1,35.1c0,14.4-7.7,27-19.1,32.7h30.6
		c5.6-9.4,8.9-20.6,8.9-32.7c0-24.7-14.2-47-35.1-55.3l-0.6-0.2l-0.1-0.6C466.7,30.6,430.4,0,389.7,0c-28.4,0-55.2,14-71.9,39.6
		h27.8c12.3-11.6,28.1-17.9,44.2-17.9C423.3,21.6,452.4,49.3,457.3,86z"/>
</g>
</svg>
