<?xml version="1.0" encoding="utf-8"?>
<svg version="1.1" id="klaud9_logo_mini" xmlns="http://www.w3.org/2000/svg" xmlns:xlink="http://www.w3.org/1999/xlink" x="0px"
	 y="0px" viewBox="0 0 512 430.5" style="enable-background:new 0 0 512 430.5;" xml:space="preserve">
<g>
	<g>
		<path fill="#EB6E5F" d="M131.2,430.5c-14.3,0-22.5-6.3-22.5-16.5c0-8.7,5.3-15.3,16.2-17.7c44.8-10.2,93.1-38.8,108.8-101.8
			c-13.1,9.2-31,16.5-51.9,16.5c-50.7,0-85.6-33.2-85.6-93.1c0-60.1,44.8-96.5,100.1-96.5c66.2,0,101.3,45.6,101.3,122.7
			C297.9,377.5,182.3,430.5,131.2,430.5z M193.7,158.5c-25.5,0-39.8,24.5-39.8,56c0,33.7,13.8,58.9,45.3,58.9c15,0,31-5.8,40.7-13.6
			c0.5-6.3,0.5-12.1,0.5-18.4C240.2,196.1,228.1,158.5,193.7,158.5z"/>
	</g>
	<path fill="#EB6E5F" d="M367.8,226.7l2.9,21.1l18.7,4.1c39.8,8.7,68.8,47.8,68.8,92.6c0,38.1-20.4,71.3-50.4,86.1h80.7
		c14.8-24.7,23.5-54.3,23.5-86.1c0-65.2-37.3-123.9-92.6-145.7l-1.5-0.5l-0.2-1.5C392.5,80.7,297,0,189.6,0
		C114.4,0,44.1,36.8,0,104.2h73.2C105.7,73.7,147.2,57,189.6,57C278.3,57,354.7,129.9,367.8,226.7z"/>
</g>
</svg>
