<?xml version="1.0" encoding="UTF-8" standalone="no"?>
<svg width="289px" height="289px" viewBox="0 0 289 289" version="1.1" xmlns="http://www.w3.org/2000/svg" xmlns:xlink="http://www.w3.org/1999/xlink">
    <defs>
        <polygon id="path-1" points="0 288.94 0 0.407 288.592 0.407 288.592 288.94"></polygon>
    </defs>
    <g id="Page-1" stroke="none" stroke-width="1" fill="none" fill-rule="evenodd">
        <g id="logo">
            <path d="M140.454,167.049 C138.627,168.895 137.713,171.119 137.713,173.717 C137.713,176.317 138.627,178.509 140.454,180.285 C142.28,182.064 144.479,182.953 147.049,182.953 C149.62,182.953 151.786,182.064 153.545,180.285 C155.303,178.509 156.184,176.317 156.184,173.717 L156.184,164.277 L147.049,164.277 C144.479,164.277 142.28,165.203 140.454,167.049" id="Fill-1" fill="#0A0A08"></path>
            <g id="Group-5">
                <mask id="mask-2" fill="white">
                    <use xlink:href="#path-1"></use>
                </mask>
                <g id="Clip-3"></g>
                <path d="M212.29,127.133 L203.153,127.133 L203.153,173.412 C203.153,175.982 204.035,178.148 205.795,179.906 C207.551,181.665 209.719,182.548 212.29,182.548 C214.858,182.548 217.057,181.665 218.887,179.906 C220.717,178.148 221.625,175.98 221.625,173.412 L221.625,136.469 C221.625,133.9 220.717,131.699 218.887,129.869 C217.057,128.047 214.858,127.133 212.29,127.133" id="Fill-2" fill="#0A0A08" mask="url(#mask-2)"></path>
                <path d="M240.096,173.412 C240.096,180.99 237.391,187.484 231.981,192.895 C226.561,198.314 220.002,201.019 212.29,201.019 C204.709,201.019 198.215,198.314 192.805,192.895 C187.387,187.484 184.68,180.99 184.68,173.412 L184.68,90.389 L203.153,90.389 L203.153,108.66 L212.29,108.66 C220.002,108.66 226.561,111.398 231.981,116.881 C237.391,122.363 240.096,128.89 240.096,136.469 L240.096,173.412 Z M174.657,173.759 C174.657,181.353 171.948,187.865 166.538,193.289 C161.124,198.713 154.627,201.424 147.049,201.424 C139.469,201.424 132.942,198.709 127.461,193.275 C121.981,187.844 119.241,181.322 119.241,173.717 C119.241,166.111 121.981,159.594 127.461,154.16 C132.942,148.726 139.469,146.01 147.049,146.01 L156.184,146.01 L156.184,136.672 C156.184,134.102 155.303,131.935 153.545,130.176 C151.786,128.418 149.62,127.537 147.049,127.537 C144.479,127.537 142.28,128.418 140.454,130.176 C138.627,131.935 137.713,134.102 137.713,136.672 L119.241,136.672 C119.241,129.094 121.981,122.599 127.461,117.184 C132.942,111.774 139.469,109.065 147.049,109.065 C154.627,109.065 161.124,111.78 166.538,117.203 C171.948,122.627 174.657,129.138 174.657,136.731 L174.657,173.759 Z M111.123,173.412 C111.123,180.992 108.414,187.488 103.003,192.898 C97.589,198.312 91.027,201.018 83.314,201.018 C75.733,201.018 69.237,198.312 63.826,192.898 C58.413,187.488 55.707,180.992 55.707,173.412 L55.707,90.39 L74.179,90.39 L74.179,108.659 L83.314,108.659 C91.027,108.659 97.589,111.399 103.003,116.88 C108.414,122.361 111.123,128.891 111.123,136.469 L111.123,173.412 Z M144.297,0.407 C64.604,0.407 0,65.011 0,144.703 C0,224.396 64.604,289 144.297,289 C223.99,289 288.592,224.395 288.592,144.703 C288.592,65.012 223.99,0.407 144.297,0.407 L144.297,0.407 Z" id="Fill-4" fill="#0A0A08" mask="url(#mask-2)"></path>
            </g>
            <path d="M83.314,127.131 L74.179,127.131 L74.179,173.412 C74.179,175.984 75.057,178.15 76.817,179.908 C78.575,181.668 80.741,182.547 83.314,182.547 C85.882,182.547 88.084,181.668 89.911,179.908 C91.737,178.15 92.65,175.984 92.65,173.412 L92.65,136.469 C92.65,133.9 91.737,131.698 89.911,129.871 C88.084,128.045 85.882,127.131 83.314,127.131" id="Fill-6" fill="#0A0A08"></path>
        </g>
    </g>
</svg>
